<svg xmlns="http://www.w3.org/2000/svg" xmlns:xlink="http://www.w3.org/1999/xlink" width="45.454" height="42" viewBox="0 0 45.454 42">
  <defs>
    <style>
      .cls-1 {
        fill: #ce0100;
      }

      .cls-2 {
        clip-path: url(#clip-path);
      }
    </style>
    <clipPath id="clip-path">
      <rect id="矩形_1133" data-name="矩形 1133" class="cls-1" width="45.454" height="42"/>
    </clipPath>
  </defs>
  <g id="组_1280" data-name="组 1280" transform="translate(280 298.929)">
    <g id="组_1279" data-name="组 1279" transform="translate(-280 -298.929)">
      <g id="组_1278" data-name="组 1278" class="cls-2" transform="translate(0 0)">
        <path id="路径_1252" data-name="路径 1252" class="cls-1" d="M-233.113-279.737l-.111-.092a1.088,1.088,0,0,0-1.533.169l-1.87,2.343a19.958,19.958,0,0,0-.372-2.732,20.717,20.717,0,0,0-24.5-16.162,20.849,20.849,0,0,0-16.056,24.664,20.714,20.714,0,0,0,24.5,16.16,20.4,20.4,0,0,0,10.309-5.639.254.254,0,0,0,.031-.029c.048-.049.236-.275.282-.328a.768.768,0,0,0,.212-.579,1.4,1.4,0,0,0-1.087-1.228,1.358,1.358,0,0,0-1.2.494,16.661,16.661,0,0,1-8.81,4.942c-10.142,2.128-19.8-3.74-21.913-13.949a18.415,18.415,0,0,1,14.176-22.11,18.234,18.234,0,0,1,21.878,14.3,19.486,19.486,0,0,1,.34,2.346L-241.1-279a1.087,1.087,0,0,0-1.533.17,1.271,1.271,0,0,0,.167,1.678s.082.072.085.072l4.109,3.3.107.085a1.506,1.506,0,0,0,.9.41c.283-.029.657-.42.849-.66,0,0,.069-.081.069-.081l3.3-4.165s-.017.035-.015.034a1.147,1.147,0,0,0-.056-1.587Zm0,0" transform="translate(278.109 296.779)"/>
        <path id="路径_1253" data-name="路径 1253" class="cls-1" d="M-259.194-256.7a20.8,20.8,0,0,1-13.035-4.636,20.842,20.842,0,0,1-4.641-5.274,20.981,20.981,0,0,1-2.687-6.781,20.965,20.965,0,0,1-.051-8.323,20.971,20.971,0,0,1,3.019-7.438,20.833,20.833,0,0,1,5.571-5.756,20.636,20.636,0,0,1,7.6-3.277,20.847,20.847,0,0,1,4.267-.444A20.8,20.8,0,0,1-246.112-294a20.837,20.837,0,0,1,4.642,5.274,20.974,20.974,0,0,1,2.687,6.781,20.059,20.059,0,0,1,.353,2.465l1.694-2.123a1.193,1.193,0,0,1,.937-.452,1.2,1.2,0,0,1,.752.265l.112.093a1.252,1.252,0,0,1,.072,1.741l-.007.008-.033.034h-.005l-3.244,4.09-.061.071-.008.01c-.124.155-.556.663-.924.7a.51.51,0,0,1-.065,0,1.748,1.748,0,0,1-.919-.437l-.107-.084-4.1-3.3a.642.642,0,0,1-.095-.08,1.378,1.378,0,0,1-.179-1.829,1.192,1.192,0,0,1,.937-.452,1.2,1.2,0,0,1,.751.265l2.064,1.668a19.528,19.528,0,0,0-.314-2.073,18.092,18.092,0,0,0-17.8-14.632,19.28,19.28,0,0,0-3.947.413,18.3,18.3,0,0,0-14.09,21.98A17.631,17.631,0,0,0-259.342-259.3a20.066,20.066,0,0,0,4.111-.431,16.415,16.415,0,0,0,8.75-4.907,1.572,1.572,0,0,1,1.09-.554.93.93,0,0,1,.22.026,1.517,1.517,0,0,1,1.172,1.33.879.879,0,0,1-.24.658l-.089.1c-.09.107-.162.191-.195.225a.318.318,0,0,1-.038.036,20.567,20.567,0,0,1-10.361,5.665,20.84,20.84,0,0,1-4.271.445Zm.045-41.709a20.622,20.622,0,0,0-4.221.44,20.763,20.763,0,0,0-15.971,24.534,20.709,20.709,0,0,0,20.147,16.515,20.613,20.613,0,0,0,4.225-.441,20.345,20.345,0,0,0,10.254-5.609l.008-.007a.123.123,0,0,0,.017-.015l.006-.006c.028-.029.12-.137.186-.216l.092-.108a.663.663,0,0,0,.184-.5,1.292,1.292,0,0,0-1-1.126.717.717,0,0,0-.167-.02,1.374,1.374,0,0,0-.919.474l-.009.011a16.839,16.839,0,0,1-8.866,4.972,20.294,20.294,0,0,1-4.156.436,18.9,18.9,0,0,1-6.152-1.015,17.912,17.912,0,0,1-5.318-2.9,17.877,17.877,0,0,1-6.418-10.559,18.52,18.52,0,0,1,14.261-22.241,19.507,19.507,0,0,1,3.992-.418,18.485,18.485,0,0,1,6.2,1.06,18.1,18.1,0,0,1,5.357,3,18.152,18.152,0,0,1,4.084,4.673,19.038,19.038,0,0,1,2.379,6.074,19.737,19.737,0,0,1,.342,2.359l.021.258-2.467-1.995a.968.968,0,0,0-.612-.216.971.971,0,0,0-.765.369,1.161,1.161,0,0,0,.15,1.523l.008.007.056.048,4.237,3.4a1.5,1.5,0,0,0,.781.389l.04,0a1.657,1.657,0,0,0,.774-.617c.011-.014.031-.038.074-.087l3.37-4.249a1.016,1.016,0,0,0-.123-1.311l-.112-.092a.969.969,0,0,0-.612-.216.972.972,0,0,0-.765.369l-2.047,2.565-.019-.284A19.963,19.963,0,0,0-239-281.9a20.711,20.711,0,0,0-20.15-16.516Zm0,0" transform="translate(280 298.649)"/>
      </g>
    </g>
    <path id="路径_1254" data-name="路径 1254" class="cls-1" d="M-52.8-130.057v-.011a1.143,1.143,0,0,0,1.139-1.144,1.142,1.142,0,0,0-1.139-1.142h-6.871v-2.1l6.809-6.678-.007-.008a1.142,1.142,0,0,0,.1-1.613,1.141,1.141,0,0,0-1.611-.1l-6.406,6.315-6.737-6.616a1.141,1.141,0,0,0-1.613.1,1.14,1.14,0,0,0,.1,1.61l-.007.008,7.084,6.929v2.157h-6.87v.005a1.142,1.142,0,0,0-1.14,1.142,1.143,1.143,0,0,0,1.14,1.144v.005h6.87v3.53h-6.87v.006a1.144,1.144,0,0,0-1.141,1.142,1.145,1.145,0,0,0,1.141,1.144v.005h6.87v6.783h.005a1.143,1.143,0,0,0,1.143,1.139,1.141,1.141,0,0,0,1.141-1.139h.006v-6.783H-52.8v-.012a1.145,1.145,0,0,0,1.141-1.143,1.142,1.142,0,0,0-1.141-1.143h-6.869v-3.53Zm0,0" transform="translate(-198.311 -146.811)"/>
    <path id="路径_1255" data-name="路径 1255" class="cls-1" d="M-62.683-118.068a1.254,1.254,0,0,1-1.248-1.139h0l-.005-.11v-6.673h-6.87V-126a1.255,1.255,0,0,1-1.141-1.249,1.254,1.254,0,0,1,1.141-1.247v-.011h6.87v-3.309h-6.87v-.01a1.255,1.255,0,0,1-1.14-1.25,1.254,1.254,0,0,1,1.14-1.248v-.005l.11-.005h6.759v-2l-7.121-6.965.006-.008a1.242,1.242,0,0,1-.343-.789,1.242,1.242,0,0,1,.313-.9,1.254,1.254,0,0,1,.938-.423,1.251,1.251,0,0,1,.831.316l0,0,6.659,6.54,6.333-6.242a1.249,1.249,0,0,1,.83-.316,1.253,1.253,0,0,1,.937.421,1.256,1.256,0,0,1-.027,1.694l.007.008-6.849,6.718v1.947h6.76a1.253,1.253,0,0,1,1.25,1.252,1.255,1.255,0,0,1-1.139,1.25v.015h-6.871v3.309h6.758a1.254,1.254,0,0,1,1.251,1.253,1.254,1.254,0,0,1-1.141,1.248v.016h-6.869v6.783h-.011a1.253,1.253,0,0,1-1.247,1.139Zm-1.038-1.36.005.11a1.032,1.032,0,0,0,1.032,1.029,1.031,1.031,0,0,0,1.031-1.029v-.11h.006v-6.783h6.869v-.011h.11a1.033,1.033,0,0,0,1.031-1.032,1.032,1.032,0,0,0-1.031-1.032h-6.979v-3.751h6.871v-.01h.11a1.033,1.033,0,0,0,1.029-1.034,1.031,1.031,0,0,0-1.029-1.031h-6.981v-2.26l6.769-6.639-.011-.012.081-.072a1.034,1.034,0,0,0,.087-1.458,1.033,1.033,0,0,0-.771-.347,1.029,1.029,0,0,0-.682.258l-6.481,6.389-6.812-6.691a1.03,1.03,0,0,0-.682-.258,1.032,1.032,0,0,0-.773.348,1.022,1.022,0,0,0-.258.745,1.023,1.023,0,0,0,.345.709l.078.069-.01.012,7.046,6.891v2.314h-6.87l-.111.005a1.032,1.032,0,0,0-1.03,1.032,1.033,1.033,0,0,0,1.03,1.034h.111v.005h6.87v3.751h-6.87v.006H-70.7a1.032,1.032,0,0,0-1.031,1.032,1.033,1.033,0,0,0,1.031,1.033h.111v.005h6.87Zm0,0" transform="translate(-196.441 -144.941)"/>
  </g>
</svg>
