<svg xmlns="http://www.w3.org/2000/svg" width="55.633" height="75.589" viewBox="0 0 55.633 75.589">
  <defs>
    <style>
      .cls-1 {
        fill: gray;
      }

      .cls-2 {
        fill: #fefefe;
      }
    </style>
  </defs>
  <g id="组_1291" data-name="组 1291" transform="translate(152 302.929)">
    <path id="路径_1261" data-name="路径 1261" class="cls-1" d="M-48.192-25.676a2.461,2.461,0,0,1-.907-.453c-4.082-2.419-6.652-5.593-8.466-10.733l-.151-.3a1.733,1.733,0,0,1,1.058-1.965c.151,0,.3-.151.454-.151a1.663,1.663,0,0,1,1.512.907l.151.3A15.557,15.557,0,0,0-47.436-29a1.766,1.766,0,0,1,.907.907,1.634,1.634,0,0,1-1.059,2.116c-.151,0-.3.151-.453.151Zm-8.92-14.211A1.639,1.639,0,0,1-58.775-41.1a1.76,1.76,0,0,1,1.209-2.268c.151,0,.3-.151.6-.151A1.638,1.638,0,0,1-55.3-42.306a1.469,1.469,0,0,1-.151,1.361,1.6,1.6,0,0,1-1.058.907,1.144,1.144,0,0,1-.6.151Zm0,0" transform="translate(-83.852 -233.563)"/>
    <path id="路径_1262" data-name="路径 1262" class="cls-1" d="M-109.67-251.831a27.765,27.765,0,0,0,13.3-23.432,27.808,27.808,0,0,0-27.817-27.665A27.808,27.808,0,0,0-152-275.264a27.239,27.239,0,0,0,13.3,23.432l-11.338,14.362a8.409,8.409,0,0,0-.907,3.779c0,4.233,2.268,6.349,5.593,6.349h42.33c3.326,0,5.593-2.116,5.593-6.349a7.362,7.362,0,0,0-.907-3.779Zm-37.19-23.432a22.615,22.615,0,0,1,22.677-22.526,22.614,22.614,0,0,1,22.677,22.526,22.614,22.614,0,0,1-22.677,22.526,22.615,22.615,0,0,1-22.677-22.526Zm0,0" transform="translate(0 0)"/>
    <path id="路径_1263" data-name="路径 1263" class="cls-2" d="M-51.375,232.586a27.925,27.925,0,0,1-9.977,1.965,27.291,27.291,0,0,1-9.978-1.965l-10.734,13.908a2.573,2.573,0,0,0-.151,1.058,1.905,1.905,0,0,0,1.965,1.965h38.1a2,2,0,0,0,1.965-1.965,2.242,2.242,0,0,0-.151-1.058Zm0,0" transform="translate(-62.831 -482.149)"/>
  </g>
</svg>
