<svg xmlns="http://www.w3.org/2000/svg" xmlns:xlink="http://www.w3.org/1999/xlink" width="33" height="33" viewBox="0 0 33 33">
  <defs>
    <style>
      .cls-1 {
        fill: #fff;
      }

      .cls-2 {
        fill: url(#linear-gradient);
      }

      .cls-3 {
        clip-path: url(#clip-path);
      }
    </style>
    <linearGradient id="linear-gradient" x1="1" y1="0.5" x2="0" y2="0.5" gradientUnits="objectBoundingBox">
      <stop offset="0" stop-color="#fd907e"/>
      <stop offset="1" stop-color="#fe9885"/>
    </linearGradient>
    <clipPath id="clip-path">
      <rect id="矩形_229" data-name="矩形 229" class="cls-1" width="10.504" height="18.167"/>
    </clipPath>
  </defs>
  <g id="组_1319" data-name="组 1319" transform="translate(-998 -1482.726)">
    <circle id="椭圆_205" data-name="椭圆 205" class="cls-2" cx="16.5" cy="16.5" r="16.5" transform="translate(998 1482.726)"/>
    <g id="组_1288" data-name="组 1288" transform="translate(1009.248 1490.143)">
      <g id="组_208" data-name="组 208" transform="translate(0 0)">
        <g id="组_207" data-name="组 207" class="cls-3" transform="translate(0 0)">
          <path id="路径_247" data-name="路径 247" class="cls-1" d="M153.715,303.431a.745.745,0,0,0,.506-.194l9.069-8.4a.631.631,0,0,0,0-.939l-9.069-8.4a.756.756,0,0,0-1.012,0,.631.631,0,0,0,0,.939l8.563,7.935-8.563,7.935a.631.631,0,0,0,0,.939.745.745,0,0,0,.506.194Zm0,0" transform="translate(-152.995 -285.287)"/>
        </g>
      </g>
    </g>
  </g>
</svg>
