<svg xmlns="http://www.w3.org/2000/svg" width="73.526" height="75.589" viewBox="0 0 73.526 75.589">
  <defs>
    <style>
      .cls-1 {
        fill: #777;
      }
    </style>
  </defs>
  <path id="路径_1257" data-name="路径 1257" class="cls-1" d="M-119.88-234.34h-14.191a2.632,2.632,0,0,1-1.895-.8,2.632,2.632,0,0,1-.741-1.918v-23.37h-8.121v23.37a2.633,2.633,0,0,1-.74,1.916,2.633,2.633,0,0,1-1.892.8h-13.974a8.041,8.041,0,0,1-7.894-8.145v-23.847h-1.488A6.258,6.258,0,0,1-177-272.709a6.16,6.16,0,0,1,1.715-4.365l26.677-29.157a11.289,11.289,0,0,1,8.027-3.692,11.289,11.289,0,0,1,8.228,3.22.914.914,0,0,0,.458.472l26.673,29.157a6.487,6.487,0,0,1-.114,8.976,6.048,6.048,0,0,1-4.351,1.767h-2.291v23.847a8.035,8.035,0,0,1-7.9,8.145Zm-11.447-5.433h11.447a2.835,2.835,0,0,0,2.75-2.835v-26.436a2.63,2.63,0,0,1,2.631-2.711h4.923a.863.863,0,0,0,.8-.591.962.962,0,0,0-.232-1.063l-26.786-29.04a6.057,6.057,0,0,0-4.357-2.022,6.059,6.059,0,0,0-4.459,1.786.249.249,0,0,0-.226.236l-26.673,29.035a.945.945,0,0,0,0,1.3.83.83,0,0,0,.69.236h4.233a2.63,2.63,0,0,1,2.631,2.712V-242.6a2.834,2.834,0,0,0,2.75,2.834h11.333v-20.658a5.336,5.336,0,0,1,5.262-5.433h8.126a5.343,5.343,0,0,1,5.272,5.433l-.118,20.658Zm0,0" transform="translate(177 309.929)"/>
</svg>
