<svg xmlns="http://www.w3.org/2000/svg" xmlns:xlink="http://www.w3.org/1999/xlink" width="37.642" height="42.82" viewBox="0 0 37.642 42.82">
  <defs>
    <style>
      .cls-1 {
        fill: #ce0100;
      }

      .cls-2 {
        clip-path: url(#clip-path);
      }
    </style>
    <clipPath id="clip-path">
      <rect id="矩形_1132" data-name="矩形 1132" class="cls-1" width="37.642" height="42.82"/>
    </clipPath>
  </defs>
  <g id="组_1277" data-name="组 1277" transform="translate(51 124.929)">
    <g id="组_1276" data-name="组 1276" transform="translate(-51 -124.929)">
      <g id="组_1275" data-name="组 1275" class="cls-2" transform="translate(0)">
        <path id="路径_1250" data-name="路径 1250" class="cls-1" d="M-31.618-121.594a47,47,0,0,1,9.629,1.113c2.45.519,4.505,1.108,5.932,1.531-.005.477-.011,1.039-.016,1.649-.011,1.386-.027,2.96-.027,4.212v.825c.005,5.278.011,10.266-1.731,14.805a19.413,19.413,0,0,1-4.016,6.38A25.881,25.881,0,0,1-25.307-88a39.468,39.468,0,0,1-4.74,3.019,4.215,4.215,0,0,1-2.056.68,4.091,4.091,0,0,1-2.056-.7,37.239,37.239,0,0,1-4.793-3.142A26.455,26.455,0,0,1-42.461-91.4a21.145,21.145,0,0,1-4.112-6.825c-1.779-4.817-1.779-9.993-1.774-15v-.471c0-1.242.011-2.248.021-3.222.005-.675.016-1.317.016-2.023q2.6-.751,5.257-1.312a56.881,56.881,0,0,1,11.072-1.333c.128-.011.245-.011.362-.011Zm0-2.676H-32a69.7,69.7,0,0,0-17.969,3.03,1.405,1.405,0,0,0-.985,1.343c0,2.232-.043,3.736-.043,6.193,0,10.48-.245,22.271,15.562,31.049a6.724,6.724,0,0,0,3.344,1.033,6.84,6.84,0,0,0,3.323-1.006c15.743-8.569,15.338-19.28,15.338-30.461,0-2.216.043-5.465.043-6.814a1.4,1.4,0,0,0-1-1.343c-2.663-.8-9.874-3.024-17.234-3.024Zm0,0" transform="translate(50.998 124.34)"/>
      </g>
    </g>
    <path id="路径_1251" data-name="路径 1251" class="cls-1" d="M36.674,20.572a1.322,1.322,0,0,1-.943-.391L28.781,13.2a1.343,1.343,0,0,1,0-1.895,1.326,1.326,0,0,1,1.885,0l6.007,6.038L47.538,6.42a1.326,1.326,0,0,1,1.885,0,1.342,1.342,0,0,1,0,1.895L37.616,20.181a1.322,1.322,0,0,1-.942.391Zm0,0" transform="translate(-70.993 -117.106)"/>
  </g>
</svg>
