<svg xmlns="http://www.w3.org/2000/svg" width="74.969" height="75" viewBox="0 0 74.969 75">
  <defs>
    <style>
      .cls-1 {
        fill: #7c7c7c;
      }
    </style>
  </defs>
  <g id="组_1290" data-name="组 1290" transform="translate(202 252.929)">
    <g id="组_1289" data-name="组 1289" transform="translate(-202 -252.929)">
      <path id="路径_1259" data-name="路径 1259" class="cls-1" d="M175.269,108.419a15.917,15.917,0,1,0,15.912,15.913,15.917,15.917,0,0,0-15.912-15.913Zm-.009,27.282c-6.28,0-1.369-5.09-1.369-11.369s-4.91-11.369,1.369-11.369a11.369,11.369,0,1,1,0,22.738Zm0,0" transform="translate(-118.208 -67.279)"/>
      <path id="路径_1260" data-name="路径 1260" class="cls-1" d="M-135.192-186.121a2.276,2.276,0,0,1,3.117,0l4.684,4.688a2.276,2.276,0,0,1-.249,2.778,2.275,2.275,0,0,1-2.753.45l-4.684-4.684a2.276,2.276,0,0,1,0-3.117Zm-43.972-61.212a5.873,5.873,0,0,1,5.834,5.829v11.4a5.874,5.874,0,0,1-5.829,5.846h-11.4a5.874,5.874,0,0,1-5.844-5.834v-11.4a5.873,5.873,0,0,1,5.829-5.843h11.411m.01-5.6h-11.421A11.459,11.459,0,0,0-202-241.508v11.42a11.459,11.459,0,0,0,11.421,11.43h11.42a11.459,11.459,0,0,0,11.425-11.425V-241.5a11.459,11.459,0,0,0-11.42-11.425Zm39.969,5.6a5.874,5.874,0,0,1,5.843,5.829v11.4a5.874,5.874,0,0,1-5.829,5.845h-11.407a5.873,5.873,0,0,1-5.843-5.829v-11.4a5.874,5.874,0,0,1,5.825-5.843h11.411m.015-5.6h0Zm0,0H-150.6a11.459,11.459,0,0,0-11.421,11.421v11.42A11.459,11.459,0,0,0-150.6-218.663h11.425a11.459,11.459,0,0,0,11.425-11.425V-241.5a11.46,11.46,0,0,0-11.43-11.425Zm-39.991,45.58a5.874,5.874,0,0,1,5.841,5.825v11.408a5.874,5.874,0,0,1-5.829,5.846h-11.4A5.874,5.874,0,0,1-196.4-190.1v-11.407a5.873,5.873,0,0,1,5.829-5.843h11.409m.012-5.6h-11.421A11.459,11.459,0,0,0-202-201.524V-190.1a11.459,11.459,0,0,0,11.425,11.425h11.421A11.459,11.459,0,0,0-167.729-190.1v-11.425a11.46,11.46,0,0,0-11.425-11.421Zm0,0" transform="translate(202 252.929)"/>
    </g>
  </g>
</svg>
