<svg xmlns="http://www.w3.org/2000/svg" width="73.526" height="75.589" viewBox="0 0 73.526 75.589">
  <defs>
    <style>
      .cls-1 {
        fill: #ce0100;
      }
    </style>
  </defs>
  <path id="路径_1257" data-name="路径 1257" class="cls-1" d="M-119.88-234.34h-14.191a2.632,2.632,0,0,1-1.895-.8,2.632,2.632,0,0,1-.741-1.918v-23.37h-8.121v23.37a2.633,2.633,0,0,1-.74,1.916,2.633,2.633,0,0,1-1.892.8h-13.974a8.041,8.041,0,0,1-7.894-8.145v-23.847h-1.488A6.258,6.258,0,0,1-177-272.709a6.16,6.16,0,0,1,1.715-4.365l26.677-29.157a11.289,11.289,0,0,1,8.027-3.692,11.289,11.289,0,0,1,8.228,3.22.914.914,0,0,0,.458.472l26.673,29.157a6.487,6.487,0,0,1-.114,8.976,6.048,6.048,0,0,1-4.351,1.767h-2.291v23.847a8.035,8.035,0,0,1-7.9,8.145Z" transform="translate(177 309.929)"/>
</svg>
